<?xml version="1.0" standalone="no"?>
<!DOCTYPE svg PUBLIC "-//W3C//DTD SVG 20010904//EN"
 "http://www.w3.org/TR/2001/REC-SVG-20010904/DTD/svg10.dtd">
<svg version="1.0" xmlns="http://www.w3.org/2000/svg"
 width="900.000000pt" height="900.000000pt" viewBox="0 0 900.000000 900.000000"
 preserveAspectRatio="xMidYMid meet">

<g transform="translate(0.000000,900.000000) scale(0.100000,-0.100000)"
fill="#000000" stroke="none">
<path d="M5385 8621 c-11 -5 -32 -22 -47 -37 -15 -16 -41 -42 -58 -59 -40 -38
-84 -101 -116 -165 -14 -28 -38 -66 -54 -83 -15 -18 -85 -108 -155 -202 -110
-146 -131 -180 -151 -244 -13 -41 -22 -77 -19 -79 2 -3 -20 -40 -50 -84 -30
-44 -55 -85 -55 -92 0 -23 -22 -36 -42 -25 -12 6 -18 6 -18 -1 0 -5 -9 -10
-20 -10 -12 0 -35 -7 -53 -16 -17 -9 -32 -13 -34 -8 -2 5 -23 8 -47 6 -29 -3
-60 3 -94 18 -49 21 -53 21 -129 6 -43 -8 -109 -17 -148 -21 -76 -6 -183 -20
-285 -37 -36 -6 -78 -12 -95 -14 -72 -9 -238 -49 -333 -80 -199 -65 -537 -236
-665 -336 -23 -18 -103 -88 -179 -154 -85 -77 -147 -124 -166 -129 -30 -6 -78
-71 -172 -230 -32 -53 -138 -181 -192 -232 -25 -22 -45 -47 -45 -54 0 -8 -30
-91 -67 -185 -61 -158 -66 -176 -61 -229 3 -41 1 -65 -9 -80 -24 -36 -47 -128
-36 -139 21 -21 8 -48 -54 -113 -104 -111 -163 -205 -196 -313 -45 -148 -50
-184 -36 -282 4 -33 3 -81 -4 -117 -10 -59 -10 -62 24 -128 20 -37 42 -79 50
-93 26 -45 116 -238 116 -247 0 -5 28 -32 63 -60 35 -28 83 -79 107 -114 48
-71 115 -121 149 -112 23 6 91 -39 91 -61 0 -7 11 -18 25 -24 17 -8 25 -20 25
-36 0 -14 5 -28 10 -31 19 -12 11 -54 -12 -66 -13 -7 -36 -23 -53 -35 -16 -13
-41 -32 -53 -41 -13 -10 -30 -33 -38 -50 -8 -18 -38 -51 -67 -74 -64 -51 -118
-133 -153 -235 -24 -70 -26 -82 -15 -124 7 -26 11 -73 10 -106 -4 -74 15 -176
38 -217 27 -46 132 -126 168 -127 17 0 46 -9 65 -18 34 -17 35 -19 33 -67 -16
-398 -15 -483 6 -586 46 -224 229 -481 407 -570 34 -17 72 -41 86 -54 34 -31
56 -41 109 -49 33 -5 67 -22 121 -61 79 -57 97 -79 72 -89 -8 -3 -115 -13
-237 -21 -246 -17 -336 -32 -415 -71 -49 -24 -53 -28 -50 -57 2 -26 10 -35 43
-51 36 -17 83 -19 490 -28 494 -11 2171 -4 2900 12 687 15 1361 45 1615 71
114 12 145 26 153 67 9 40 -39 76 -133 98 -66 16 -124 18 -460 19 -283 0 -392
3 -413 12 -58 26 -56 105 4 168 16 17 37 55 47 85 l19 55 74 15 c80 17 194 69
328 149 46 28 109 59 138 68 69 22 137 92 245 253 245 367 320 611 305 995 -5
125 -9 158 -27 199 -17 38 -21 62 -18 111 3 55 9 69 45 117 22 30 55 68 72 85
17 17 31 38 31 46 0 31 93 199 139 252 68 77 76 124 75 410 -1 144 -13 194
-85 350 -78 167 -130 244 -227 337 -70 67 -201 158 -228 158 -5 0 -26 9 -46
20 -68 36 -248 91 -331 100 -45 6 -97 14 -115 19 -80 24 -172 99 -172 142 0
11 -18 73 -40 137 -21 64 -48 160 -59 212 -19 94 -100 323 -158 450 -40 88
-109 187 -194 279 -38 41 -69 79 -69 84 0 5 -12 24 -27 42 -16 17 -36 47 -46
64 -9 18 -22 31 -28 29 -6 -2 -32 17 -58 42 -25 25 -66 62 -89 83 -23 21 -42
45 -42 52 0 16 -148 98 -161 89 -16 -9 -116 83 -121 111 -7 34 35 99 98 152
28 23 60 62 73 90 14 26 36 66 51 88 42 64 97 194 129 306 69 241 95 347 97
389 1 25 18 81 36 125 27 64 33 91 31 134 -3 67 -36 120 -73 122 -14 1 -36 3
-50 4 -33 3 -95 -28 -117 -61 -10 -14 -27 -33 -38 -42 -10 -10 -40 -39 -64
-67 -25 -27 -85 -89 -133 -137 -49 -48 -88 -92 -88 -98 0 -5 -5 -10 -11 -10
-8 0 -9 12 -4 38 4 20 8 71 9 112 1 41 8 92 15 113 17 50 8 94 -30 145 -32 43
-58 51 -104 33z m58 -112 c-1 -24 -3 -107 -6 -184 -4 -139 -12 -205 -27 -205
-10 0 -30 -56 -30 -81 0 -10 -20 -46 -44 -81 -24 -35 -74 -112 -111 -173 -38
-60 -74 -114 -81 -120 -7 -5 -20 -26 -28 -45 -17 -42 -128 -159 -134 -142 -5
16 -22 15 -22 -1 0 -19 -94 -57 -141 -57 -31 0 -42 4 -46 18 -3 14 -12 17 -46
13 -37 -3 -40 -2 -28 13 7 9 19 16 27 16 7 0 14 12 16 27 4 33 24 41 31 13 3
-12 13 -20 27 -20 22 0 103 50 117 73 6 11 -16 -2 -72 -40 -35 -24 -53 -16
-59 25 -8 48 0 73 65 207 52 107 218 380 243 400 7 6 32 42 57 80 24 39 51 78
60 88 15 16 16 16 27 -8 22 -47 14 -80 -32 -142 -35 -47 -50 -80 -75 -170 -17
-62 -31 -116 -31 -120 1 -19 29 45 30 67 1 42 55 166 92 212 20 23 39 54 43
68 11 34 8 86 -5 111 -16 28 0 69 52 136 47 61 83 84 113 73 16 -6 20 -15 18
-51z m543 2 c28 -17 30 -22 27 -66 -2 -26 -11 -61 -21 -79 -9 -17 -17 -44 -18
-61 -7 -121 -69 -339 -131 -459 -8 -15 -16 -43 -18 -60 -4 -46 -73 -202 -106
-239 -83 -94 -109 -130 -109 -153 0 -25 -12 -33 -196 -148 -26 -16 -49 -37
-51 -47 -5 -19 -67 -37 -165 -46 -80 -8 -62 -23 28 -23 54 0 73 -3 71 -12 -1
-10 20 -14 77 -15 44 -1 84 -7 90 -13 7 -7 -1 -10 -25 -10 -44 0 -26 -12 61
-41 71 -23 325 -183 315 -198 -3 -5 16 -25 43 -44 48 -36 127 -122 172 -187
13 -19 43 -57 66 -83 24 -26 64 -78 90 -114 50 -70 174 -299 174 -321 0 -7 11
-32 24 -55 13 -23 38 -80 54 -127 26 -76 37 -126 72 -330 23 -138 -40 -289
-161 -386 -37 -29 -83 -73 -102 -96 -38 -46 -87 -133 -87 -153 0 -24 -150
-154 -224 -195 -42 -23 -76 -46 -76 -51 0 -6 -4 -7 -10 -4 -5 3 -26 -3 -47
-14 -21 -10 -68 -25 -103 -32 -36 -6 -87 -23 -113 -36 -27 -13 -96 -35 -155
-48 -59 -13 -204 -46 -322 -74 -118 -27 -420 -97 -670 -155 -250 -58 -498
-119 -550 -136 -52 -17 -125 -39 -162 -50 -37 -10 -89 -28 -115 -39 -26 -10
-92 -33 -146 -50 -159 -50 -337 -147 -464 -252 -26 -22 -67 -48 -90 -59 -23
-10 -63 -33 -88 -50 -40 -28 -50 -30 -90 -24 -25 3 -45 10 -45 15 0 5 -9 9
-20 9 -11 0 -44 8 -73 18 -46 17 -75 34 -196 114 -14 10 -31 20 -38 24 -6 3
-35 37 -63 75 -31 42 -56 67 -63 63 -7 -4 -9 -4 -5 1 4 4 -1 19 -12 32 -21 27
-60 124 -60 149 0 9 -6 30 -14 47 -8 18 -19 82 -25 142 -6 61 -15 124 -20 140
l-8 30 -11 -26 c-11 -29 -34 -178 -34 -224 0 -16 3 -61 7 -99 l8 -69 -29 18
c-31 18 -104 106 -104 124 0 6 -24 28 -54 50 -29 22 -65 59 -79 83 -14 24 -35
52 -47 63 -29 26 -65 99 -74 149 -4 21 -13 48 -20 60 -43 68 -66 303 -40 398
8 29 21 91 30 138 8 47 26 103 39 126 25 42 97 114 115 114 15 0 83 107 75
119 -3 6 1 11 9 11 9 0 16 6 17 13 0 6 2 35 3 62 4 72 16 136 31 170 49 106
71 163 106 265 21 63 54 137 74 165 143 208 438 521 629 667 66 51 134 107
152 125 17 17 69 50 114 73 86 43 411 173 465 185 17 4 56 16 89 27 145 48
550 96 695 83 47 -4 100 -6 116 -5 72 5 124 3 184 -8 35 -6 71 -8 80 -3 9 4
31 11 50 15 29 5 32 4 21 -9 -12 -14 -8 -15 27 -9 44 7 83 -8 83 -31 0 -18 31
-20 50 -2 8 6 5 1 -6 -13 -33 -38 -77 -110 -72 -115 2 -3 27 17 55 43 29 27
86 72 127 101 76 52 76 52 70 23 -8 -38 14 -54 73 -55 99 -1 226 85 345 233
47 59 136 217 153 272 7 24 27 77 45 118 17 41 31 89 32 105 0 17 12 50 26 75
47 85 82 160 82 179 0 10 -7 24 -15 31 -13 11 -9 18 27 55 24 24 60 62 81 84
42 46 50 48 93 22z m-223 -208 c-1 -6 -4 -23 -7 -39 -3 -16 -20 -56 -37 -88
-17 -33 -42 -98 -55 -145 -13 -47 -29 -94 -34 -104 -6 -9 -20 -42 -31 -73 -12
-30 -41 -87 -65 -127 -24 -39 -44 -78 -44 -87 0 -22 -85 -120 -145 -167 -108
-83 -155 -107 -212 -107 -71 0 -80 11 -51 61 13 23 41 73 63 113 22 40 59 96
82 124 23 28 130 173 237 321 185 258 232 316 266 328 20 7 36 2 33 -10z
m1274 -3039 c-3 -3 -12 -4 -19 -1 -8 3 -5 6 6 6 11 1 17 -2 13 -5z m-697 -208
c0 -2 -8 -10 -17 -17 -16 -13 -17 -12 -4 4 13 16 21 21 21 13z m1141 -23 c13
-16 12 -17 -3 -4 -10 7 -18 15 -18 17 0 8 8 3 21 -13z m-1290 -296 c-6 -8 -7
-18 -3 -22 4 -5 1 -5 -6 -1 -10 6 -10 11 -1 22 6 8 14 14 16 14 3 0 0 -6 -6
-13z m784 -17 c-3 -5 -12 -10 -18 -10 -7 0 -6 4 3 10 19 12 23 12 15 0z m-35
-14 c0 -2 -8 -10 -17 -17 -16 -13 -17 -12 -4 4 13 16 21 21 21 13z m393 -33
c-7 -2 -21 -2 -30 0 -10 3 -4 5 12 5 17 0 24 -2 18 -5z m-3 -83 c8 -5 11 -10
5 -10 -5 0 -21 10 -35 21 -24 20 -5 13 30 -11z m-1428 -52 c43 -13 68 -47 68
-94 0 -34 18 -130 37 -204 33 -124 120 -224 242 -281 36 -17 76 -35 88 -41 29
-14 105 -128 145 -215 34 -76 78 -237 79 -292 0 -41 60 -203 77 -209 7 -2 13
27 18 79 6 71 11 86 37 116 26 30 35 34 63 29 21 -4 50 1 85 15 30 11 94 29
143 40 59 12 106 30 138 50 42 27 55 31 101 27 91 -8 150 -62 177 -163 7 -27
29 -86 49 -130 30 -69 35 -93 39 -177 5 -109 -7 -173 -68 -376 -36 -120 -134
-365 -169 -423 -9 -15 -35 -57 -58 -95 -57 -95 -154 -186 -216 -204 -26 -7
-50 -11 -52 -8 -2 2 27 43 65 91 38 48 66 87 61 87 -5 0 -53 -33 -108 -73
-144 -105 -231 -140 -415 -166 -84 -12 -240 7 -358 44 -83 26 -87 29 -177 122
-92 94 -163 205 -163 257 0 11 -12 44 -25 71 -30 61 -31 87 -4 145 29 62 32
285 6 343 -23 50 -68 242 -61 260 3 8 -4 67 -16 133 -11 65 -23 153 -26 194
-3 41 -12 112 -20 158 -10 62 -11 101 -4 152 9 61 7 80 -15 162 -13 51 -34
138 -45 193 -11 55 -24 103 -29 108 -4 4 -18 -19 -31 -52 -37 -100 -50 -101
-153 -15 -50 42 -57 52 -52 75 6 26 5 27 -72 37 -63 8 -152 4 -463 -19 -491
-36 -537 -39 -525 -34 36 16 1086 240 1187 254 84 12 131 2 148 -29 15 -28 12
-98 -6 -124 -9 -15 -11 -26 -5 -30 5 -4 33 26 60 66 57 83 86 116 121 141 29
20 49 21 102 5z m1875 -90 c-3 -8 -6 -5 -6 6 -1 11 2 17 5 13 3 -3 4 -12 1
-19z m-1720 -40 c-3 -8 -6 -5 -6 6 -1 11 2 17 5 13 3 -3 4 -12 1 -19z m1740
-130 c-2 -18 -4 -6 -4 27 0 33 2 48 4 33 2 -15 2 -42 0 -60z m-1020 40 c-3 -7
-5 -2 -5 12 0 14 2 19 5 13 2 -7 2 -19 0 -25z m355 -15 c10 -9 18 -23 17 -32
0 -10 -4 -8 -9 7 -5 12 -20 27 -32 32 -13 5 -17 9 -9 9 8 1 23 -6 33 -16z
m-395 -15 c-3 -8 -6 -5 -6 6 -1 11 2 17 5 13 3 -3 4 -12 1 -19z m740 -10 c-3
-7 -5 -2 -5 12 0 14 2 19 5 13 2 -7 2 -19 0 -25z m-2264 -65 c81 -29 238 -178
309 -295 51 -83 59 -105 78 -203 12 -61 37 -159 56 -218 36 -114 56 -230 73
-437 16 -179 14 -224 -14 -325 -22 -82 -29 -94 -72 -132 -36 -32 -59 -44 -93
-48 -70 -10 -217 -33 -305 -49 -44 -8 -111 -20 -150 -26 -38 -6 -108 -18 -154
-26 -103 -19 -175 -8 -296 43 -99 43 -131 56 -125 50 24 -23 116 -77 142 -82
18 -4 44 -16 57 -26 13 -11 33 -19 45 -19 63 0 178 -42 267 -98 64 -40 116
-65 162 -76 38 -10 89 -26 113 -37 25 -10 58 -19 72 -19 15 0 99 -39 187 -87
88 -47 207 -105 265 -129 107 -43 216 -113 245 -157 19 -29 29 -124 16 -141
-5 -6 -15 -31 -22 -56 -14 -48 -56 -95 -124 -138 -22 -14 -65 -47 -95 -72
-111 -93 -211 -134 -353 -145 -66 -6 -80 -4 -101 13 l-25 19 33 49 c65 98 72
112 34 69 -49 -56 -131 -110 -229 -151 l-84 -36 -300 -4 c-294 -4 -389 -13
-430 -41 -11 -7 -38 -13 -60 -13 -23 0 -46 -5 -53 -12 -9 -9 -30 -9 -90 0 -45
7 -108 10 -149 6 -54 -5 -77 -3 -99 9 -16 8 -55 21 -86 28 -32 7 -58 16 -58
21 0 4 -5 8 -11 8 -6 0 -25 11 -43 25 -18 14 -38 25 -43 25 -12 0 -51 45 -114
127 -24 33 -50 55 -67 59 -46 12 -258 124 -299 159 -22 19 -59 68 -84 109 -24
42 -47 76 -51 76 -16 0 -7 -30 31 -106 44 -87 122 -172 204 -218 26 -15 47
-34 47 -42 0 -8 11 -19 24 -24 28 -10 66 -56 66 -80 0 -27 -39 -70 -63 -70
-35 0 -205 38 -297 66 -91 28 -217 99 -300 170 -27 23 -63 45 -80 49 -16 4
-32 11 -35 16 -4 5 -16 9 -28 9 -32 0 -96 36 -142 80 -207 198 -211 202 -259
300 -25 52 -53 124 -61 160 -8 36 -22 94 -30 130 -9 36 -15 85 -14 110 1 25
-2 64 -6 87 -19 108 71 383 184 562 26 41 51 123 51 168 0 24 7 69 15 101 8
31 20 97 26 145 9 75 16 94 40 122 16 18 29 37 29 43 0 22 54 20 89 -4 20 -13
41 -24 48 -24 18 0 20 -45 4 -85 -31 -75 -42 -139 -58 -327 -4 -52 -2 -72 11
-89 9 -13 16 -43 16 -66 0 -60 35 -112 112 -166 75 -53 213 -132 248 -142 14
-4 33 -14 42 -22 14 -12 51 -16 180 -17 l163 -1 62 32 c34 18 71 45 83 60 20
26 27 28 118 33 93 5 97 6 100 29 2 13 0 21 -6 17 -6 -3 -33 -1 -61 5 -50 10
-54 9 -149 -34 -53 -24 -111 -50 -129 -57 -73 -28 -318 -9 -400 31 -24 12 -54
36 -66 54 -15 22 -32 35 -53 38 -56 9 -109 56 -149 132 -70 135 -84 248 -36
299 13 13 27 50 36 91 16 80 47 124 123 175 29 19 64 52 78 72 14 20 48 51 75
70 27 18 49 37 49 42 0 40 426 275 508 280 15 1 46 12 69 24 23 12 48 22 54
22 7 0 36 11 65 25 82 39 150 53 388 79 231 26 476 42 831 55 116 4 214 9 219
9 4 1 31 -6 59 -15z m2334 -35 c-3 -7 -5 -2 -5 12 0 14 2 19 5 13 2 -7 2 -19
0 -25z m-710 -3 c0 -8 -4 -12 -9 -9 -5 3 -6 10 -3 15 9 13 12 11 12 -6z m289
-13 c-17 -16 -18 -16 -5 5 7 12 15 20 18 17 3 -2 -3 -12 -13 -22z m-955 -19
c13 -16 12 -17 -3 -4 -10 7 -18 15 -18 17 0 8 8 3 21 -13z m44 -35 c5 4 5 1 1
-6 -6 -10 -11 -10 -22 -1 -8 6 -14 14 -14 16 0 3 6 0 13 -6 8 -6 18 -7 22 -3z
m1272 -20 c-3 -7 -5 -2 -5 12 0 14 2 19 5 13 2 -7 2 -19 0 -25z m-340 -13 c0
-8 -3 -13 -5 -10 -3 3 -12 -1 -21 -7 -10 -8 -9 -4 3 10 23 26 23 26 23 7z
m593 -69 c0 -2 -8 -10 -17 -17 -16 -13 -17 -12 -4 4 13 16 21 21 21 13z
m-1313 -53 c-4 -3 -2 -12 4 -20 10 -11 15 -11 28 -1 14 11 14 11 4 -3 -7 -9
-9 -20 -5 -25 4 -5 -5 2 -20 15 -24 21 -29 41 -11 41 4 0 3 -3 0 -7z m950
-119 c-3 -3 -12 -4 -19 -1 -8 3 -5 6 6 6 11 1 17 -2 13 -5z m-37 -17 c0 -2
-10 -12 -22 -23 l-23 -19 19 23 c18 21 26 27 26 19z m240 -67 c-6 -11 -13 -20
-16 -20 -2 0 0 9 6 20 6 11 13 20 16 20 2 0 0 -9 -6 -20z m-5295 -31 c5 -5 17
-9 26 -9 20 0 71 -82 64 -102 -3 -7 -6 -78 -8 -158 -4 -198 -26 -268 -139
-440 -79 -122 -114 -136 -235 -99 -38 12 -123 102 -123 130 0 11 -8 32 -17 47
-15 22 -18 46 -15 154 2 127 3 127 43 205 45 87 120 165 184 194 22 10 58 35
80 56 36 34 44 38 85 35 25 -2 49 -8 55 -13z m4975 17 c0 -2 -8 -10 -17 -17
-16 -13 -17 -12 -4 4 13 16 21 21 21 13z m-639 -43 c13 -16 12 -17 -3 -4 -10
7 -18 15 -18 17 0 8 8 3 21 -13z m712 -8 c-3 -9 -8 -14 -10 -11 -3 3 -2 9 2
15 9 16 15 13 8 -4z m187 -9 c0 -2 -7 -7 -16 -10 -8 -3 -12 -2 -9 4 6 10 25
14 25 6z m-843 -13 c-4 -3 -1 -13 6 -22 11 -14 10 -14 -5 -2 -16 12 -16 31 -1
31 4 0 3 -3 0 -7z m706 -50 c-7 -2 -19 -2 -25 0 -7 3 -2 5 12 5 14 0 19 -2 13
-5z m-426 -39 c-3 -3 -12 -4 -19 -1 -8 3 -5 6 6 6 11 1 17 -2 13 -5z m-1505
-1139 c278 -48 266 -44 305 -91 36 -44 63 -116 63 -166 0 -37 -36 -56 -77 -40
-15 6 -44 14 -63 17 -19 4 -123 33 -230 65 -107 32 -223 65 -258 74 -60 16
-160 67 -174 90 -9 14 -10 42 -1 33 3 -4 13 -1 21 6 15 12 149 33 229 36 23 0
106 -10 185 -24z"/>
<path d="M5071 7817 c-12 -36 -31 -73 -41 -82 -11 -10 -20 -22 -20 -28 0 -5
-16 -32 -36 -61 l-36 -51 45 50 c26 28 46 53 47 58 0 4 10 24 23 45 24 39 52
121 44 129 -3 2 -15 -25 -26 -60z"/>
<path d="M2080 5450 c-6 -12 -8 -29 -5 -40 9 -28 821 -734 848 -738 29 -4 49
19 45 51 -2 17 -118 125 -412 385 -430 381 -448 394 -476 342z"/>
<path d="M4710 655 c0 -67 3 -85 14 -85 10 0 16 13 18 38 2 29 7 37 23 37 16
0 21 -8 23 -37 5 -54 32 -52 32 1 0 45 -20 71 -56 71 -20 0 -24 5 -24 30 0 20
-5 30 -15 30 -12 0 -15 -16 -15 -85z"/>
<path d="M3750 713 c-31 -16 -42 -33 -92 -148 -31 -72 -57 -138 -57 -147 -1
-18 48 -58 72 -58 9 0 17 6 20 13 2 6 7 -9 11 -35 5 -31 14 -51 26 -58 10 -5
86 -10 169 -10 179 0 191 6 191 89 0 33 10 69 30 114 l31 64 -35 76 c-29 65
-40 79 -76 97 -36 18 -46 20 -77 9 -34 -11 -133 -8 -163 5 -8 3 -31 -2 -50
-11z m93 -100 c22 -51 43 -93 46 -93 3 1 26 43 50 95 25 52 48 95 52 95 28 0
59 -26 59 -49 0 -20 2 -23 10 -11 7 11 16 -1 38 -50 l29 -65 -29 -65 c-16 -36
-36 -72 -44 -80 -12 -13 -17 -12 -34 6 l-21 20 20 47 c11 26 19 47 17 47 -7 0
-56 -88 -56 -99 0 -16 60 -50 76 -44 23 9 18 -54 -5 -66 -25 -14 -288 -13
-314 0 -18 10 -19 19 -14 147 3 76 2 112 -2 82 -7 -63 -41 -150 -57 -150 -6 0
-19 9 -28 19 -16 18 -15 24 30 132 26 63 53 119 61 125 7 6 13 15 13 19 0 13
34 35 49 32 8 -1 32 -44 54 -94z"/>
<path d="M3930 479 c-27 -23 -36 -26 -38 -14 -2 8 -7 15 -11 15 -7 0 -46 -40
-72 -75 -12 -16 -9 -15 20 5 31 22 35 22 46 7 11 -15 18 -11 59 38 52 60 50
71 -4 24z"/>
<path d="M4850 715 c0 -8 7 -15 15 -15 8 0 15 7 15 15 0 8 -7 15 -15 15 -8 0
-15 -7 -15 -15z"/>
<path d="M4226 671 c-1 -3 -1 -27 2 -53 5 -59 29 -66 34 -11 2 27 8 39 21 41
14 3 17 -4 17 -37 0 -34 3 -41 20 -41 17 0 20 7 20 41 0 33 3 40 18 37 12 -2
18 -14 20 -41 3 -29 7 -37 23 -37 19 0 20 5 15 41 -9 63 -17 68 -107 67 -44
-1 -81 -4 -83 -7z"/>
<path d="M4455 664 c-17 -18 -19 -47 -5 -75 9 -16 20 -19 60 -18 l50 2 0 52 0
52 -45 1 c-27 1 -50 -5 -60 -14z m68 -28 c8 -21 -16 -48 -36 -40 -17 6 -23 35
-10 47 11 12 41 7 46 -7z"/>
<path d="M4601 666 c-19 -23 -6 -45 29 -53 20 -3 28 -9 22 -15 -6 -6 -18 -6
-32 2 -26 14 -38 6 -20 -15 16 -19 64 -19 80 0 18 22 5 45 -30 51 -16 4 -30
10 -30 15 0 12 17 11 42 -2 17 -9 19 -8 16 8 -4 24 -60 30 -77 9z"/>
<path d="M4857 673 c-4 -3 -7 -28 -7 -55 0 -36 4 -48 15 -48 12 0 15 13 15 55
0 51 -7 65 -23 48z"/>
<path d="M4915 672 c-3 -3 -5 -27 -5 -54 0 -34 4 -48 14 -48 16 0 26 21 26 57
0 18 5 24 18 21 12 -2 18 -14 20 -41 4 -50 32 -52 32 -2 0 23 6 38 15 42 22 8
27 -1 29 -42 1 -26 5 -35 19 -35 13 0 17 8 17 38 0 57 -20 70 -108 69 -40 0
-74 -3 -77 -5z"/>
<path d="M5136 661 c-20 -23 -21 -55 0 -76 16 -16 105 -18 104 -2 0 4 0 27 0
51 l0 43 -44 1 c-30 1 -49 -4 -60 -17z m68 -28 c9 -21 -16 -46 -37 -37 -17 6
-23 35 -10 47 12 13 41 7 47 -10z"/>
<path d="M5274 655 c3 -11 6 -35 6 -52 0 -23 5 -33 15 -33 11 0 15 11 15 35 0
25 5 38 18 43 34 14 23 31 -19 29 -35 -1 -40 -4 -35 -22z"/>
<path d="M5377 662 c-35 -39 -10 -92 42 -92 34 0 54 21 54 57 0 48 -64 71 -96
35z m67 -29 c9 -21 -16 -46 -37 -37 -17 6 -23 35 -10 47 12 13 41 7 47 -10z"/>
<path d="M4233 475 c0 -22 2 -30 4 -17 2 12 2 30 0 40 -3 9 -5 -1 -4 -23z"/>
<path d="M4402 480 c2 -27 7 -35 23 -35 26 0 32 33 8 42 -10 4 -22 11 -26 17
-4 6 -6 -5 -5 -24z m33 -9 c3 -5 1 -12 -5 -16 -5 -3 -10 1 -10 9 0 18 6 21 15
7z"/>
<path d="M4700 488 c0 -17 -3 -20 -9 -9 -11 17 -41 7 -41 -13 0 -21 19 -30 35
-16 11 9 15 9 15 1 0 -6 5 -11 10 -11 6 0 10 16 10 35 0 19 -4 35 -10 35 -5 0
-10 -10 -10 -22z m-20 -24 c0 -8 -4 -12 -10 -9 -5 3 -10 10 -10 16 0 5 5 9 10
9 6 0 10 -7 10 -16z"/>
<path d="M4810 474 c0 -19 4 -33 8 -30 12 7 14 66 2 66 -5 0 -10 -16 -10 -36z"/>
<path d="M4946 493 c-4 -4 -17 -8 -29 -8 -26 0 -36 -32 -12 -41 9 -4 22 -1 28
6 9 9 8 11 -5 8 -9 -1 -18 1 -20 6 -2 5 7 10 20 11 15 1 22 -4 22 -17 0 -10 5
-18 10 -18 6 0 10 9 10 20 0 11 0 23 1 27 1 11 -16 15 -25 6z"/>
<path d="M4254 475 c-8 -20 4 -35 27 -35 14 0 19 7 19 25 0 18 -5 25 -20 25
-11 0 -23 -7 -26 -15z m30 -16 c-3 -5 -10 -7 -15 -3 -5 3 -7 10 -3 15 3 5 10
7 15 3 5 -3 7 -10 3 -15z"/>
<path d="M4310 466 c0 -32 20 -35 21 -3 0 21 1 21 11 -3 l11 -25 7 25 7 25 12
-25 11 -25 -3 25 c-2 21 -8 25 -39 28 -35 3 -38 1 -38 -22z"/>
<path d="M4467 483 c-8 -18 -1 -38 16 -41 13 -3 17 3 17 22 0 24 -23 37 -33
19z"/>
<path d="M4510 480 c0 -8 5 -22 11 -30 8 -12 12 -12 16 -2 4 10 8 10 19 1 11
-9 15 -8 20 5 6 15 7 15 19 0 15 -21 48 -11 43 13 -4 20 -68 30 -68 11 0 -7
-5 -6 -14 1 -11 9 -15 9 -19 -1 -4 -10 -8 -10 -16 2 -10 13 -11 13 -11 0z
m114 -21 c-3 -5 -10 -7 -15 -3 -5 3 -7 10 -3 15 3 5 10 7 15 3 5 -3 7 -10 3
-15z"/>
<path d="M4757 477 c-3 -8 -2 -20 3 -27 11 -18 42 -4 38 17 -4 22 -34 29 -41
10z"/>
<path d="M4837 476 c-8 -20 20 -43 35 -28 14 14 3 42 -16 42 -7 0 -16 -6 -19
-14z"/>
<path d="M4991 462 l0 -27 11 25 10 25 9 -23 c11 -28 44 -26 44 3 0 16 -7 20
-37 22 -35 2 -38 0 -37 -25z m64 9 c3 -5 1 -12 -5 -16 -5 -3 -10 1 -10 9 0 18
6 21 15 7z"/>
<path d="M5081 463 l0 -28 11 25 11 25 6 -25 c4 -15 10 -20 14 -13 11 18 -3
43 -24 43 -14 0 -19 -7 -18 -27z"/>
<path d="M5142 465 c0 -16 2 -22 5 -12 2 9 2 23 0 30 -3 6 -5 -1 -5 -18z"/>
<path d="M5163 474 c-8 -22 13 -42 30 -25 8 8 8 11 1 9 -7 -2 -11 2 -10 7 0 6
4 9 9 8 4 -2 7 2 7 7 0 16 -30 11 -37 -6z"/>
<path d="M5218 484 c-3 -3 -4 -14 -1 -25 8 -28 33 -24 33 6 0 23 -18 34 -32
19z"/>
<path d="M4226 364 c-9 -8 -16 -19 -16 -23 0 -13 40 -45 47 -38 3 4 0 7 -7 7
-9 0 -7 5 6 15 16 13 16 14 2 9 -10 -3 -18 -1 -18 5 0 6 6 11 14 11 8 0 17 4
20 9 4 5 -4 7 -16 4 -19 -4 -20 -3 -8 6 9 6 10 11 3 11 -6 0 -19 -7 -27 -16z
m10 -24 c0 -12 -4 -16 -9 -11 -5 5 -6 14 -3 20 10 15 12 14 12 -9z"/>
<path d="M4561 350 c-1 -29 3 -36 18 -36 14 0 17 4 11 12 -6 6 -6 15 -2 19 4
5 2 5 -5 1 -7 -4 -13 2 -16 16 -3 15 -5 11 -6 -12z"/>
<path d="M4890 370 c0 -5 5 -10 11 -10 5 0 7 5 4 10 -3 6 -8 10 -11 10 -2 0
-4 -4 -4 -10z"/>
<path d="M5053 345 c0 -22 2 -30 4 -17 2 12 2 30 0 40 -3 9 -5 -1 -4 -23z"/>
<path d="M5073 345 c0 -22 2 -30 4 -17 2 12 2 30 0 40 -3 9 -5 -1 -4 -23z"/>
<path d="M5241 342 c1 -20 3 -29 6 -19 5 18 5 18 19 0 13 -17 13 -17 14 2 0
11 -9 28 -20 38 -20 16 -20 16 -19 -21z"/>
<path d="M5736 359 c-19 -18 -16 -49 4 -49 14 0 23 23 18 48 -3 18 -4 18 -22
1z"/>
<path d="M4320 360 c0 -6 5 -8 10 -5 6 3 10 2 10 -4 0 -5 -4 -13 -10 -16 -16
-10 -11 -25 8 -25 25 0 24 53 0 58 -10 2 -18 -2 -18 -8z"/>
<path d="M4374 356 c-8 -22 3 -49 19 -43 6 2 12 14 12 27 0 27 -22 39 -31 16z
m26 -17 c0 -5 -4 -9 -10 -9 -5 0 -10 7 -10 16 0 8 5 12 10 9 6 -3 10 -10 10
-16z"/>
<path d="M4424 356 c-8 -22 3 -49 19 -43 6 2 12 14 12 27 0 27 -22 39 -31 16z
m26 -17 c0 -5 -4 -9 -10 -9 -5 0 -10 7 -10 16 0 8 5 12 10 9 6 -3 10 -10 10
-16z"/>
<path d="M4474 356 c-8 -22 3 -49 19 -43 6 2 12 14 12 27 0 27 -22 39 -31 16z
m26 -16 c0 -5 -4 -10 -10 -10 -5 0 -10 5 -10 10 0 6 5 10 10 10 6 0 10 -4 10
-10z"/>
<path d="M5290 346 c0 -13 5 -28 10 -31 6 -3 10 3 10 14 0 12 0 24 1 28 0 4
-4 9 -10 11 -6 2 -11 -8 -11 -22z"/>
<path d="M4634 345 c-3 -8 -4 -20 -1 -27 4 -8 6 -6 6 5 1 9 5 17 10 17 5 0 12
-8 14 -17 4 -17 5 -17 6 0 0 9 5 17 10 17 5 0 12 -8 15 -17 3 -11 4 -8 3 7 -2
19 -8 25 -30 27 -17 1 -30 -4 -33 -12z"/>
<path d="M4763 344 c-7 -18 11 -39 26 -30 17 11 13 46 -4 46 -9 0 -18 -7 -22
-16z"/>
<path d="M4821 346 c-9 -10 -8 -16 3 -25 10 -9 16 -8 25 3 9 10 8 16 -3 25
-10 9 -16 8 -25 -3z"/>
<path d="M4908 353 c-10 -2 -18 -11 -18 -19 0 -17 20 -19 21 -1 0 6 4 3 9 -8
l9 -20 0 20 c1 16 3 17 11 5 5 -8 12 -11 16 -7 7 7 -14 38 -25 36 -3 -1 -14
-3 -23 -6z"/>
<path d="M5002 348 c-8 -8 -8 -15 -1 -24 14 -17 39 -6 39 17 0 21 -20 25 -38
7z m23 -7 c3 -5 1 -12 -5 -16 -5 -3 -10 1 -10 9 0 18 6 21 15 7z"/>
<path d="M5127 353 c-4 -3 -7 -16 -6 -27 0 -19 1 -19 10 3 10 24 8 36 -4 24z"/>
<path d="M5183 344 c-4 -10 1 -22 11 -29 13 -10 14 -14 4 -18 -9 -4 -8 -6 3
-6 22 -1 32 56 11 64 -20 7 -22 7 -29 -11z"/>
<path d="M5334 345 c-7 -17 4 -37 17 -30 12 8 12 45 -1 45 -6 0 -13 -7 -16
-15z"/>
<path d="M5401 333 c0 -16 3 -22 6 -13 3 8 10 21 16 28 7 8 5 12 -7 12 -11 0
-16 -8 -15 -27z"/>
<path d="M5441 346 c-9 -10 -8 -16 3 -25 10 -9 16 -8 25 3 9 10 8 16 -3 25
-10 9 -16 8 -25 -3z"/>
<path d="M5490 335 c0 -17 5 -25 13 -22 6 2 12 12 12 22 0 10 -6 20 -12 23 -8
2 -13 -6 -13 -23z"/>
<path d="M5533 344 c-8 -21 13 -42 28 -27 13 13 5 43 -11 43 -6 0 -13 -7 -17
-16z"/>
<path d="M5593 353 c-15 -5 -18 -33 -4 -33 8 0 25 30 19 35 -2 1 -9 0 -15 -2z"/>
<path d="M5620 355 c0 -5 4 -16 9 -24 11 -17 31 -6 31 17 0 15 -2 15 -10 2 -9
-13 -11 -13 -20 0 -5 8 -10 11 -10 5z"/>
<path d="M5673 344 c-8 -21 13 -42 28 -27 13 13 5 43 -11 43 -6 0 -13 -7 -17
-16z"/>
<path d="M4612 330 c0 -14 2 -19 5 -12 2 6 2 18 0 25 -3 6 -5 1 -5 -13z"/>
<path d="M4741 335 c0 -12 -6 -26 -13 -33 -9 -9 -9 -12 0 -12 16 0 25 23 19
47 -4 16 -5 15 -6 -2z"/>
<path d="M5162 330 c0 -14 2 -19 5 -12 2 6 2 18 0 25 -3 6 -5 1 -5 -13z"/>
</g>
</svg>
